PathFileType  4	(X/Y/Z) C:\Users\antoi\Documents\MyRepositories\mobilecap\ResultsAnalysis
DataRate	CameraRate	NumFrames	NumMarkers	Units	OrigDataRate	OrigDataStartFrame	OrigNumFrames
100.0	100.0	4	55	mm	100.0	130	517
Frame#	Time	r_knee			r_shank_antsup			r_ankle			r_calc			r_5meta			r_toe			L_knee			L_shank_antsup			L_ankle			L_calc			L_5meta			L_toe			r_mknee			r_mankle			L_mknee			L_mankle			r_sh2			r_sh3			r_sh4			L_sh2			L_sh3			r_thigh1			r_thigh2			r_thigh3			r_thigh4			r_thigh5			L_thigh1			L_thigh2			L_thigh3			L_thigh4			r.ASIS			r.PSIS			L.ASIS			L.PSIS			C7			R_Shoulder			L_Shoulder			R_Sternum			L_Sternum			R_humerus			R_elbow_med			R_elbow_lat			R_forearm			R_wrist_radius			R_wrist_ulna			L_humerus			L_elbow_med			L_elbow_lat			L_forearm			L_wrist_radius			L_wrist_ulna			R_HJC			L_HJC			R_HJC_reg			L_HJC_reg			
		X1	Y1	Z1	X2	Y2	Z2	X3	Y3	Z3	X4	Y4	Z4	X5	Y5	Z5	X6	Y6	Z6	X7	Y7	Z7	X8	Y8	Z8	X9	Y9	Z9	X10	Y10	Z10	X11	Y11	Z11	X12	Y12	Z12	X13	Y13	Z13	X14	Y14	Z14	X15	Y15	Z15	X16	Y16	Z16	X17	Y17	Z17	X18	Y18	Z18	X19	Y19	Z19	X20	Y20	Z20	X21	Y21	Z21	X22	Y22	Z22	X23	Y23	Z23	X24	Y24	Z24	X25	Y25	Z25	X26	Y26	Z26	X27	Y27	Z27	X28	Y28	Z28	X29	Y29	Z29	X30	Y30	Z30	X31	Y31	Z31	X32	Y32	Z32	X33	Y33	Z33	X34	Y34	Z34	X35	Y35	Z35	X36	Y36	Z36	X37	Y37	Z37	X38	Y38	Z38	X39	Y39	Z39	X40	Y40	Z40	X41	Y41	Z41	X42	Y42	Z42	X43	Y43	Z43	X44	Y44	Z44	X45	Y45	Z45	X46	Y46	Z46	X47	Y47	Z47	X48	Y48	Z48	X49	Y49	Z49	X50	Y50	Z50	X51	Y51	Z51	X52	Y52	Z52	X53	Y53	Z53	X54	Y54	Z54	X55	Y55	Z55	

130	1.29000000	-218.97178	500.04664	-435.09383	-191.83111	409.59067	-438.14277	-283.85416	93.58879	-433.61178	-343.47982	57.72747	-478.23834	-162.64882	43.65275	-389.99235	-129.56191	70.32314	-446.24713	-219.88015	503.86273	-765.60456	-191.46280	420.80423	-758.95430	-274.94751	97.91622	-772.99648	-345.35070	50.02087	-725.45404	-167.74559	40.95969	-813.61624	-121.16703	64.95891	-756.96846	-233.39779	483.84468	-552.48474	-261.45328	110.89972	-509.78077	-230.61670	490.89442	-646.63748	-255.16141	103.75083	-691.81507	-204.33991	296.75081	-435.25275	-254.25537	416.17915	-395.32458	-272.64166	302.61491	-388.76277	-270.21664	443.73364	-801.59846	-285.12353	321.61716	-810.42273	-146.27533	779.67267	-430.86172	-148.04464	668.32173	-436.33492	-201.71140	642.74298	-404.20897	-256.99002	776.61991	-410.69130	-252.24662	661.06645	-419.30575	-128.79654	748.97207	-766.43924	-127.33596	608.80253	-750.08604	-232.01026	744.76815	-808.07715	-233.41579	612.72224	-779.81262	-111.46341	965.76907	-478.11074	-315.23021	1010.75505	-566.04417	-108.74199	964.09657	-734.13589	-311.51894	1010.58654	-659.32666	-283.21017	1462.93849	-612.10039	-220.84489	1432.39399	-442.80662	-194.10686	1435.03024	-762.12157	-156.48249	1392.59255	-580.43691	-156.86462	1395.03790	-625.71735	-180.95408	1301.98145	-391.82767	-267.95491	1099.54162	-424.17923	-251.36438	1111.60660	-358.69102	-189.68199	1050.62258	-343.96314	-131.49706	891.14749	-380.22430	-158.22678	890.25089	-336.82585	-162.07594	1294.13162	-817.35160	-246.28875	1096.79334	-783.98312	-212.41501	1108.14055	-856.46698	-157.50682	1053.39896	-856.92115	-105.64867	883.88525	-823.49237	-131.54340	885.02443	-869.04321	-200.94382	884.00189	-506.53685	-195.80212	883.44186	-696.02878	-190.92732	892.15647	-517.33977	-184.20934	891.85128	-686.19564	
131	1.30000000	-218.97401	500.00934	-435.10128	-191.82464	409.59890	-438.12518	-283.83853	93.55932	-433.62830	-343.47749	57.69616	-478.23477	-162.66837	43.70125	-389.98941	-129.54643	70.34715	-446.24921	-219.81736	503.92745	-765.67629	-191.44655	420.81216	-758.93496	-274.94674	97.93544	-772.99008	-345.35151	50.03953	-725.44847	-167.74599	40.97080	-813.60779	-121.17061	64.95040	-756.98708	-233.29461	483.77994	-552.37285	-261.44090	110.92716	-509.77648	-230.61976	490.90249	-646.64073	-255.15812	103.75390	-691.81824	-204.34774	296.75893	-435.23242	-254.23609	416.12812	-395.33891	-272.66292	302.63823	-388.73941	-270.20322	443.75201	-801.58158	-285.09890	321.60926	-810.40900	-146.25257	779.69513	-430.84018	-148.03960	668.31316	-436.33152	-201.69455	642.72949	-404.19707	-256.93646	776.53897	-410.79536	-252.23134	661.07871	-419.34402	-128.72890	749.02925	-766.44054	-127.31663	608.82381	-750.06445	-231.97220	744.78987	-808.04606	-233.38923	612.77153	-779.83811	-111.44013	965.77744	-478.10152	-315.23049	1010.72426	-566.03645	-108.70689	964.11691	-734.11934	-311.49147	1010.58687	-659.31884	-283.14119	1462.90349	-612.20569	-220.85584	1432.41139	-442.75272	-194.06155	1435.05758	-762.04304	-156.47935	1392.60932	-580.42521	-156.85293	1395.06963	-625.71857	-180.94943	1301.96182	-391.76432	-267.91656	1099.53097	-424.12708	-251.35946	1111.61146	-358.63441	-189.66124	1050.62425	-343.94028	-131.47918	891.06837	-380.34285	-158.19268	890.21165	-336.84743	-162.03808	1294.16245	-817.32173	-246.21434	1096.82937	-783.99041	-212.32838	1108.16728	-856.39710	-157.44048	1053.42723	-856.88345	-105.56149	883.94089	-823.44787	-131.41257	885.08301	-869.06439	-200.91190	883.99475	-506.53440	-195.75919	883.45104	-696.02608	-190.89943	892.11566	-517.37654	-184.13154	891.86684	-686.22570	
132	1.31000000	-218.91735	500.03257	-435.10517	-191.82173	409.61157	-438.11803	-283.81855	93.50072	-433.64578	-343.48350	57.72625	-478.20549	-162.67655	43.72561	-389.99540	-129.53149	70.35647	-446.24406	-219.76441	503.94165	-765.65691	-191.44490	420.83007	-758.92830	-274.93225	97.92827	-772.96288	-345.34183	50.06393	-725.42934	-167.73320	41.00149	-813.61617	-121.16670	64.96119	-756.99130	-233.23347	483.74558	-552.30820	-261.43659	110.94609	-509.77214	-230.62289	490.90852	-646.64057	-255.15423	103.75853	-691.81821	-204.36272	296.75029	-435.19450	-254.22845	416.14543	-395.36561	-272.45768	302.72887	-388.84384	-270.19789	443.78264	-801.54396	-285.09334	321.66584	-810.43684	-146.22537	779.72421	-430.81194	-148.02313	668.30563	-436.32303	-201.64691	642.72438	-404.15727	-256.92454	776.48978	-410.83640	-252.20868	661.07187	-419.31692	-128.76951	748.92284	-766.41396	-127.29184	608.84097	-750.04110	-231.93580	744.79168	-808.02266	-233.37471	612.79569	-779.83671	-111.41281	965.76455	-478.08042	-315.19946	1010.66830	-565.95844	-108.66808	964.14055	-734.12096	-311.47006	1010.59715	-659.31349	-283.15242	1462.93530	-612.12620	-220.86632	1432.41752	-442.71268	-194.02820	1435.08674	-761.99590	-156.48782	1392.63401	-580.40796	-156.81498	1395.11801	-625.71185	-180.94018	1301.93499	-391.69665	-267.89352	1099.53946	-424.05494	-251.35836	1111.60289	-358.59947	-189.63435	1050.61234	-343.91882	-131.43696	891.08605	-380.33271	-158.15494	890.17582	-336.87903	-161.98372	1294.18826	-817.27266	-246.14501	1096.87957	-784.03259	-212.24743	1108.20366	-856.36856	-157.37973	1053.46063	-856.84123	-105.48967	884.00974	-823.40483	-131.27846	885.16168	-869.12690	-200.86223	883.96466	-506.53235	-195.71811	883.46400	-696.02439	-190.82166	892.01478	-517.39909	-184.07576	891.88611	-686.26416	
133	1.32000000	-218.85413	500.06606	-435.08255	-191.81373	409.62242	-438.11120	-283.80464	93.47963	-433.65646	-343.48642	57.78481	-478.20212	-162.67931	43.70355	-390.08198	-129.53532	70.34798	-446.22829	-219.73831	503.93334	-765.56615	-191.45196	420.85799	-758.93415	-274.90663	97.88948	-772.93972	-345.33884	50.10427	-725.40252	-167.72184	41.02898	-813.62559	-121.15672	64.98974	-756.97361	-233.22925	483.75234	-552.31248	-261.43585	110.94979	-509.76778	-230.59985	490.89898	-646.59633	-255.15195	103.76266	-691.81446	-204.33555	296.77314	-435.20741	-254.22011	416.26578	-395.33032	-272.01746	302.90703	-389.03168	-270.19130	443.80470	-801.51978	-285.07738	321.73395	-810.47118	-146.21436	779.72982	-430.80569	-147.99645	668.30589	-436.31525	-201.60919	642.71832	-404.14636	-256.95208	776.51343	-410.78693	-252.17759	661.05868	-419.24806	-128.78288	748.77342	-766.37488	-127.27000	608.85440	-750.02506	-231.89705	744.77125	-808.00863	-233.35533	612.81424	-779.83318	-111.38201	965.76049	-478.03584	-315.12553	1010.64506	-565.90456	-108.63965	964.15804	-734.09423	-311.45567	1010.61504	-659.30358	-283.15706	1462.96712	-612.07002	-220.86024	1432.41043	-442.68528	-194.00219	1435.12229	-761.97333	-156.49977	1392.64690	-580.39903	-156.78993	1395.15156	-625.70853	-180.92624	1301.93630	-391.66507	-267.86453	1099.53239	-424.01439	-251.33872	1111.57998	-358.59221	-189.61434	1050.59712	-343.90216	-131.38711	891.09167	-380.31228	-158.10524	890.16439	-336.89895	-161.91558	1294.23062	-817.22129	-246.06624	1096.93453	-784.07661	-212.17373	1108.24800	-856.37682	-157.29917	1053.51808	-856.83294	-105.39219	884.08315	-823.37277	-131.14233	885.21748	-869.11694	-200.82023	883.95569	-506.51020	-195.67921	883.47611	-696.00238	-190.71894	891.96309	-517.33626	-184.08323	891.90893	-686.21743	
